<svg xmlns="http://www.w3.org/2000/svg" viewBox="0 0 500 120" fill="none">
    <g transform="translate(10, 5) scale(0.55)">
        <path fill="#2D5A3A" d="M96 20 L 104 20 L 110 50 L 130 60 L 115 70 L 140 85 L 120 95 L 150 115 L 115 125 L 120 150 L 80 150 L 85 125 L 50 115 L 80 95 L 60 85 L 85 70 L 70 60 L 90 50 Z" />
         <!-- Trunk Base -->
        <path fill="#2D5A3A" d="M 85,145 L 85,150 Q 80,165 70,170 L 130,170 Q 120,165 115,150 L 115,145 Z" />
        <!-- 5 Knees -->
        <path fill="#D4A017" d="M 45,165 Q 50,155 55,165 Z" />
        <path fill="#D4A017" d="M 65,170 Q 70,160 75,170 Z" />
        <path fill="#D4A017" d="M 125,170 Q 130,160 135,170 Z" />
        <path fill="#D4A017" d="M 145,165 Q 150,155 155,165 Z" />
        <path fill="#D4A017" d="M 95,175 L 100,165 L 105,175 Z" />
    </g>
    <!-- Text -->
    <text x="140" y="75" font-family="Inter, sans-serif" font-weight="800" font-size="44" fill="#2D5A3A" letter-spacing="-2">5 CYPRESS</text>
    <text x="142" y="102" font-family="Inter, sans-serif" font-weight="500" font-size="16" fill="#64748b" letter-spacing="4">LABS</text>
</svg>
