<svg xmlns="http://www.w3.org/2000/svg" viewBox="0 0 128 128" role="img" aria-label="5 Cypress">
  <path d="M21 57c0-9 8-15 17-14 3-10 13-17 24-17 8-9 24-8 31 2 10 2 18 10 19 21 7 3 11 9 10 16-1 7-8 11-16 9-7 8-22 8-30 2-6 5-18 5-24 0-8 6-23 5-30-3-8 2-16-3-16-10 0-3 2-5 5-6 2 0 6 0 10 0Z" fill="#5D8C5D"/>
  <path d="M45 49c8-2 15 1 19 8 5-8 15-11 24-8-10 6-15 16-17 31l11 18H46l11-18c-2-15-7-25-12-31Z" fill="#5A351E"/>
  <path d="M36 62v22M50 61v24M82 61v23M97 62v23" fill="none" stroke="#172516" stroke-width="3" stroke-linecap="round"/>
  <path d="M20 105c13-10 28-9 44-1 16-8 31-9 44 1M28 114c9-7 21-7 36-1 15-6 27-6 36 1" fill="none" stroke="#FBBF24" stroke-width="6" stroke-linecap="round"/>
</svg>
